<svg id="Layer_1" data-name="Layer 1" xmlns="http://www.w3.org/2000/svg" viewBox="0 0 51.22 87.76"><defs><style>.cls-1{isolation:isolate;}.cls-2{fill:#f0be16;}</style></defs><g id="Jan_Kan_Kov_Sky" data-name="Jan Kan Kov Sky" class="cls-1"><g class="cls-1"><path class="cls-2" d="M17.69,0V7.77a8.61,8.61,0,0,1-2.13,6.28q-2.12,2.16-6.72,2.16A14.67,14.67,0,0,1,4,15.44a15.56,15.56,0,0,1-4-2c.28-.91.51-1.78.68-2.62a22.65,22.65,0,0,0,.4-2.75A15.21,15.21,0,0,0,5.26,10.6a10.53,10.53,0,0,0,3.65.71,3.39,3.39,0,0,0,2.57-.82,4.07,4.07,0,0,0,.8-2.79V6q0-3.57-.2-6Z"/><path class="cls-2" d="M33.55,12.34a2.26,2.26,0,0,0,.18,1.06,1.06,1.06,0,0,0,.7.44l-.09,2.07c-.47.07-.87.12-1.22.15s-.8,0-1.37,0a3,3,0,0,1-2.51-.84,3.62,3.62,0,0,1-.62-2.17v-.55a5.31,5.31,0,0,1-1.86,2.68,5.16,5.16,0,0,1-3.11.88,5.23,5.23,0,0,1-3.31-.88,3.13,3.13,0,0,1-1.11-2.61,2.82,2.82,0,0,1,.94-2.25A5.93,5.93,0,0,1,23.1,9.24a31.26,31.26,0,0,0-3.34-2.07,9.23,9.23,0,0,1,3-2.54,8.91,8.91,0,0,1,4.11-.87,7.35,7.35,0,0,1,5,1.47,5.72,5.72,0,0,1,1.64,4.49ZM25.37,8a4.39,4.39,0,0,0-1.54,1.12A30.07,30.07,0,0,1,27.13,9a2.38,2.38,0,0,0,1.14-.2.58.58,0,0,0,.33-.51.55.55,0,0,0-.33-.45,1.94,1.94,0,0,0-.92-.19A4.89,4.89,0,0,0,25.37,8Zm1.89,4a2.69,2.69,0,0,0,1.36-1.24v-.57a5.12,5.12,0,0,1-1.16.41c-.43.09-.94.18-1.54.27l-.8.13c-.82.17-1.23.44-1.23.84s.38.64,1.15.64A5,5,0,0,0,27.26,12Z"/><path class="cls-2" d="M44.33,16q.14-3.22.13-6A2.38,2.38,0,0,0,44,8.49a1.51,1.51,0,0,0-1.2-.57,1.53,1.53,0,0,0-1.23.65,3.21,3.21,0,0,0-.6,1.77c0,1.12,0,1.91,0,2.38,0,1,0,2.09.09,3.27H35.75q.18-3.16.18-6t-.18-6c1,.05,1.71.07,2.22.07S39.25,4,40.19,4l.64,3.24a4.9,4.9,0,0,1,1.59-2.61,3.88,3.88,0,0,1,2.5-.85,4.43,4.43,0,0,1,2.29.58,3.77,3.77,0,0,1,1.46,1.58,4.9,4.9,0,0,1,.5,2.22v3.17c0,1.95,0,3.51.11,4.68Z"/></g><g class="cls-1"><path class="cls-2" d="M11.48,38q-1-1.86-3.43-5.72L5.48,34.83V38H0q.18-4.26.18-8T0,22H5.48v6.45A51.72,51.72,0,0,0,11.24,22h7.13l-6.93,6.87c1,1.43,2.18,3,3.47,4.68s2.44,3.16,3.48,4.42Z"/><path class="cls-2" d="M33.81,34.34A2.26,2.26,0,0,0,34,35.4a1.08,1.08,0,0,0,.7.44l-.08,2.07c-.47.07-.88.12-1.22.15s-.81,0-1.38,0a3,3,0,0,1-2.51-.84,3.62,3.62,0,0,1-.61-2.17v-.55A5.43,5.43,0,0,1,27,37.22a5.19,5.19,0,0,1-3.12.88,5.25,5.25,0,0,1-3.31-.88,3.13,3.13,0,0,1-1.11-2.61,2.82,2.82,0,0,1,1-2.25,5.89,5.89,0,0,1,2.92-1.12A30.3,30.3,0,0,0,20,29.17a9.23,9.23,0,0,1,3-2.54,8.93,8.93,0,0,1,4.12-.87,7.32,7.32,0,0,1,5,1.47,5.68,5.68,0,0,1,1.64,4.49ZM25.63,30a4.48,4.48,0,0,0-1.54,1.12,30.07,30.07,0,0,1,3.3-.15,2.38,2.38,0,0,0,1.14-.2.58.58,0,0,0,.33-.51.55.55,0,0,0-.33-.45,1.91,1.91,0,0,0-.92-.19A4.89,4.89,0,0,0,25.63,30Zm1.89,4a2.71,2.71,0,0,0,1.37-1.24v-.57a5.21,5.21,0,0,1-1.17.41c-.43.09-.94.18-1.54.27l-.79.13c-.82.17-1.23.44-1.23.84s.38.64,1.14.64A5,5,0,0,0,27.52,34Z"/><path class="cls-2" d="M44.59,38q.13-3.23.14-6a2.33,2.33,0,0,0-.48-1.54,1.48,1.48,0,0,0-1.2-.57,1.53,1.53,0,0,0-1.23.65,3.21,3.21,0,0,0-.59,1.77c0,1.12,0,1.91,0,2.38,0,1,0,2.09.09,3.27H36q.18-3.16.18-6T36,26c1,.05,1.71.07,2.23.07s1.28,0,2.22-.07l.64,3.24a4.83,4.83,0,0,1,1.58-2.61,3.91,3.91,0,0,1,2.51-.85,4.45,4.45,0,0,1,2.29.58,3.83,3.83,0,0,1,1.46,1.58,4.89,4.89,0,0,1,.49,2.22v3.17c0,1.95,0,3.51.11,4.68Z"/></g><g class="cls-1"><path class="cls-2" d="M11.48,60q-1-1.86-3.43-5.72L5.48,56.83V60H0q.18-4.26.18-8T0,44H5.48v6.45A51.72,51.72,0,0,0,11.24,44h7.13l-6.93,6.87c1,1.43,2.18,3,3.47,4.68s2.44,3.16,3.48,4.42Z"/><path class="cls-2" d="M19.72,58.49A6.07,6.07,0,0,1,18,53.94a5.93,5.93,0,0,1,1.77-4.46q1.77-1.73,5.54-1.72a9.69,9.69,0,0,1,4.23.83A5.63,5.63,0,0,1,32,50.81a6.14,6.14,0,0,1,.81,3.13,5.86,5.86,0,0,1-1.88,4.56c-1.25,1.14-3.15,1.71-5.68,1.71S20.9,59.64,19.72,58.49Zm7.76-2.7a2.4,2.4,0,0,0,.7-1.82,2.37,2.37,0,0,0-.7-1.77,2.9,2.9,0,0,0-2.14-.7,2.82,2.82,0,0,0-2.09.68,2.8,2.8,0,0,0,0,3.61,2.78,2.78,0,0,0,2.09.68A2.94,2.94,0,0,0,27.48,55.79Z"/><path class="cls-2" d="M48,48q-2.37,6.41-4.22,12H36.85q-2-6-4.25-12h5.17l2.56,9.07L42.86,48Z"/></g><g class="cls-1"><path class="cls-2" d="M1.24,78a19.54,19.54,0,0,0,1-2.24,13.88,13.88,0,0,0,3.63,1.41,16.62,16.62,0,0,0,3.85.5,7,7,0,0,0,2.57-.32Q13,77,13,76.67c0-.89-1.36-1.34-4.09-1.34a16.47,16.47,0,0,1-6.51-.94,3.14,3.14,0,0,1-2-3A4.71,4.71,0,0,1,2.84,67a12.78,12.78,0,0,1,6.4-1.41,19.9,19.9,0,0,1,4.7.59,18.85,18.85,0,0,1,4.34,1.59c-.42,1-.87,2.15-1.34,3.54-.09.3-.16.52-.22.66a9.29,9.29,0,0,0-3.39-1.5,15.46,15.46,0,0,0-4-.61,9.56,9.56,0,0,0-2.82.27q-.72.28-.72.81c0,.35.33.63,1,.85a10.15,10.15,0,0,0,2.89.31q4.66,0,6.78,1.07a3.47,3.47,0,0,1,2.11,3.27,4.77,4.77,0,0,1-2.25,4.43c-1.49.9-3.76,1.35-6.79,1.35a23.86,23.86,0,0,1-5-.54A18.06,18.06,0,0,1,0,80.1,20.64,20.64,0,0,0,1.24,78Z"/><path class="cls-2" d="M35.86,70l-5.46,5c1.87,2.64,3.6,5,5.22,7.06H29.79l-1.12-1.8c-.74-1.22-1.22-2-1.46-2.38l-1.82,1.68V82H20.33c.12-2.78.17-5.61.17-8.47s-.05-5.75-.17-8.64h5.06v9.33c1.42-1.46,2.76-2.87,4-4.25Z"/><path class="cls-2" d="M51.22,70l-.51,1.28Q48.63,76.82,46.33,82a10.18,10.18,0,0,1-3.43,4.24,9.21,9.21,0,0,1-5.63,1.53c-.28-1.22-.51-2.17-.7-2.85a15.72,15.72,0,0,0-.71-2.06,10,10,0,0,0,2.27.29,4.52,4.52,0,0,0,2.72-.73c-.52-1.57-1.15-3.25-1.87-5.06S37.22,73.09,35.86,70h5.21c.18.74.42,1.59.73,2.55s.62,1.9.92,2.8c.09.28.24.7.43,1.26s.36,1,.48,1.42l.57-1.74q1.65-4.77,2-6.29Z"/></g></g></svg>